<?xml version="1.0" encoding="utf-8"?><svg viewBox="0 0 66 69" xmlns="http://www.w3.org/2000/svg" xmlns:xlink="http://www.w3.org/1999/xlink"><style>:root>svg{display:none}:root>svg:target{display:block}</style><svg fill="none" viewBox="0 0 60 69" id="Clock" xmlns="http://www.w3.org/2000/svg"><path d="M31.5 6C15.757 6 3 18.756 3 34.5 3 50.243 15.757 63 31.5 63S60 50.243 60 34.5C60 18.756 47.243 6 31.5 6zm0 54.63c-14.4 0-26.13-11.716-26.13-26.13 0-14.4 11.716-26.13 26.13-26.13 14.4 0 26.13 11.716 26.13 26.13 0 14.4-11.73 26.13-26.13 26.13z" fill="#0E151B"/><path d="M31.5 34.5H18.347v2.37H33.87V16.963h-2.37V34.5z" fill="#0E151B"/></svg><svg viewBox="0 0 40 33" id="ISO" xmlns="http://www.w3.org/2000/svg"><path fill-rule="evenodd" clip-rule="evenodd" d="M17.529.1C14.44.45 11.256 1.782 8.88 3.715c-1.208.982-1.986 1.81-3.127 3.331l-.326.434.333-.001c.254 0 .402-.103.624-.428.357-.526 2.24-2.503 2.685-2.818l.325-.23.874.478c.481.263.875.505.875.538 0 .033-.2.301-.446.596-.509.611-1.295 1.76-1.295 1.892 0 .048.102.088.227.088.147 0 .455-.298.866-.837.35-.461.762-.985.915-1.164l.277-.326 1.41.5c.808.286 1.41.562 1.41.647.002.082-.102.353-.23.602-.29.567-.29.578.038.578.212 0 .331-.128.547-.587.257-.545.3-.583.612-.52.185.036.814.123 1.398.193 2.266.27 2.22.258 2.26.54.055.386.601.368.601-.02 0-.265.047-.283.9-.356a30.024 30.024 0 001.929-.247c.566-.093 1.042-.154 1.06-.135.016.019.141.255.278.526.193.38.314.49.54.49h.29l-.235-.457c-.13-.252-.235-.53-.235-.62 0-.104.508-.339 1.405-.65l1.405-.488.328.312c.18.172.58.666.887 1.097.497.696.942 1.024 1.133.834.064-.064-.72-1.246-1.29-1.946-.212-.26-.384-.52-.383-.577.001-.057.347-.305.768-.55.627-.365.81-.424 1.013-.328.447.213 1.755 1.483 2.51 2.438.564.712.808.936 1.023.936.28 0 .28-.003.078-.318-1.221-1.902-3.882-4.234-6.107-5.352C24.154.365 20.684-.26 17.529.099zm4.215.575c1.105.164 1.271.265.916.562-.774.647-2.806 1.04-4.247.82-1.289-.196-2.733-.863-2.458-1.136.321-.32 4.18-.484 5.789-.246zm-6.53.665l.266.213-.893.6c-.49.33-1.357.987-1.924 1.461-.568.474-1.09.862-1.162.862-.16 0-1.38-.679-1.464-.815-.154-.249 2.158-1.555 3.893-2.2 1.051-.391.96-.383 1.284-.121zm9.705.145c.564.198 1.235.463 1.49.59.812.4 2.382 1.413 2.348 1.514-.018.054-.377.286-.798.516l-.765.419-.877-.804a16.674 16.674 0 00-1.864-1.439c-1.006-.646-1.112-.77-.865-1.017.186-.185.162-.189 1.331.221zm-8.313.626c.188.097.342.222.342.278 0 .056-.326.594-.725 1.195-.4.6-.869 1.334-1.044 1.63-.365.62-.306.618-1.917.044-.526-.188-.957-.406-.957-.486 0-.374 3.305-2.836 3.807-2.837.083 0 .305.079.494.176zm7.015.248c1.395.849 3.085 2.267 2.904 2.439-.132.125-1.52.646-2.18.818-.434.113-.444.109-.74-.368-.164-.265-.46-.743-.658-1.06a23.305 23.305 0 00-.8-1.18c-.242-.33-.44-.632-.44-.67 0-.102.72-.394.985-.399.126-.002.544.187.929.42zm-4.61.333c.114.036.141.459.117 1.811l-.032 1.764-.465.038c-.408.033-1.546-.088-2.699-.287-.26-.045-.377-.13-.377-.27 0-.207 1.126-1.993 1.768-2.805.337-.426.358-.434.943-.366.329.038.664.09.746.115zm2.757.716c.795 1.083 1.49 2.295 1.4 2.44-.083.133-1.214.33-2.48.433l-.96.078.032-1.837.032-1.836.464-.07c.256-.04.553-.078.66-.087.12-.01.45.33.852.879zm9.458 5.649c-2.143.183-4.441 1.258-5.355 2.504-1.062 1.45-1.41 2.685-1.418 5.048-.007 1.928.153 2.691.832 3.981.79 1.502 2.3 2.606 4.38 3.206 1.282.369 3.842.369 5.194 0 2.684-.734 4.13-2.135 4.857-4.708.528-1.872.296-4.883-.499-6.45-.86-1.695-2.506-2.851-4.793-3.365-.782-.175-2.397-.285-3.198-.216zm-17.702.26c-1.52.44-2.496 1.197-3.032 2.352-.302.651-.335.842-.335 1.936 0 1.092.031 1.271.311 1.8.392.738 1.497 1.764 2.314 2.149.344.162 1.775.64 3.18 1.061 3.381 1.015 3.655 1.143 3.47 1.623-.205.532-2.71.666-3.883.206-.972-.381-1.696-.885-2.107-1.465l-.37-.521h-2.857V23.773h3.135v-.463c0-.254.046-.462.104-.462.057 0 .494.185.972.41 2.165 1.024 4.957 1.115 6.91.225.926-.422 1.378-.8 1.875-1.565 1.132-1.742.878-3.975-.621-5.465-.88-.875-1.682-1.23-4.754-2.104-2.741-.78-3.326-1.03-3.326-1.428 0-.446.431-.646 1.377-.639 1.667.013 3.03.515 4.08 1.505l.638.602 1.422.018 1.422.018v-4.98H20.43v.34c0 .187-.05.37-.111.408-.062.037-.392-.09-.735-.282-1.009-.566-2.21-.814-3.903-.804-1.027.005-1.669.068-2.158.21zM0 10.947v1.733h2.089v7.626H0v3.466H9.287v-3.466H7.078l.03-3.784.031-3.784 1.074-.033 1.074-.034V9.213H0v1.734zm33.154 1.788c1.291.382 1.605 1.259 1.532 4.272-.042 1.754-.076 2.024-.304 2.46-.378.72-.986 1.002-2.169 1.003-1.811.002-2.323-.657-2.457-3.168-.075-1.409.1-3.182.363-3.69.227-.435.62-.699 1.322-.887.723-.194 1.03-.192 1.713.01zM5.572 25.518c0 .226 1.455 1.984 2.337 2.824 1.902 1.812 3.882 3.01 6.294 3.807 1.71.565 2.83.768 4.633.838 4.655.18 8.982-1.465 12.226-4.65.931-.915 2.37-2.657 2.37-2.87 0-.043-.119-.077-.264-.077-.19 0-.41.2-.784.712-.568.78-2.608 2.87-2.8 2.87-.103 0-1.238-.604-1.708-.91-.123-.08-.044-.24.361-.736.677-.827 1.248-1.657 1.248-1.812 0-.068-.1-.124-.223-.124-.14 0-.436.288-.8.78-.318.429-.727.951-.91 1.16l-.33.38-1.394-.487c-.766-.268-1.413-.503-1.438-.522-.037-.028.205-.712.432-1.224.022-.048-.087-.087-.241-.087-.223 0-.336.12-.556.587-.246.522-.308.58-.571.522-.163-.035-1-.15-1.863-.255-1.946-.237-1.857-.21-1.857-.57 0-.244-.048-.293-.26-.263-.186.027-.26.116-.26.319-.002.274-.042.286-1.57.482-2.59.332-2.333.358-2.668-.273-.216-.407-.36-.548-.554-.549-.26 0-.261.005-.073.433.384.874.387.868-.614 1.203-.5.167-1.149.396-1.444.508l-.536.205-.36-.394c-.199-.217-.61-.744-.915-1.17-.398-.555-.629-.776-.816-.78-.144-.003-.261.025-.261.061 0 .095.657 1.044 1.24 1.79.275.354.5.692.499.751-.003.133-1.43.975-1.652.975-.263 0-1.899-1.576-2.713-2.614-.482-.614-.841-.968-.982-.968-.123 0-.223.058-.223.128zm13.672 2.925c.018.948-.009 1.761-.058 1.807-.05.045-.389.118-.753.16l-.662.08-.573-.777c-.718-.973-1.527-2.31-1.527-2.523 0-.11.25-.2.784-.285 1.248-.197 1.443-.215 2.118-.2l.639.014.032 1.724zm3.424-1.532c.369.07.693.165.72.21.067.106-.73 1.456-1.486 2.522l-.6.845-.697-.074c-.382-.04-.713-.091-.736-.113-.082-.082-.166-3.278-.091-3.472.07-.179.195-.192 1.149-.123.589.042 1.372.135 1.741.205zm-7.54.588c.31.51 1.713 2.69 1.89 2.937.172.242.16.26-.37.492l-.547.242-.824-.514c-.835-.521-2.566-1.855-2.852-2.2-.103-.123-.118-.226-.042-.301.124-.124 2.21-.9 2.444-.91.078-.004.214.11.3.254zm10.092.084c1.66.529 1.653.516.708 1.38-.858.785-2.758 2.089-3.043 2.089-.311 0-.945-.274-.945-.409 0-.072.208-.426.462-.787.254-.362.729-1.098 1.055-1.637.326-.54.613-.98.639-.98.026 0 .532.155 1.124.344zM12.596 29.29a16.459 16.459 0 001.84 1.415c.543.35.991.694.995.766.005.072-.071.196-.168.276-.143.118-.32.098-.949-.108-1.606-.524-4.278-1.957-4.183-2.242.053-.158 1.241-.876 1.459-.883.085-.002.538.347 1.006.776zm15.619-.405c.378.207.688.437.688.512.004.32-2.647 1.73-4.213 2.242-.63.206-.806.226-.95.108-.295-.245-.194-.385.705-.971a18.89 18.89 0 001.821-1.415c.526-.468 1.024-.85 1.109-.85.084 0 .462.168.84.374zm-6.74 2.287c.874.256 1.547.635 1.48.833-.16.477-4.905.618-6.5.194-.51-.136-.541-.243-.15-.499 1.278-.833 3.392-1.049 5.17-.528z"/></svg><svg viewBox="0 0 9 16" id="arrow" xmlns="http://www.w3.org/2000/svg"><path d="M8.707 8.707a1 1 0 000-1.414L2.343.929A1 1 0 00.93 2.343L6.586 8 .929 13.657a1 1 0 101.414 1.414l6.364-6.364zM7 9h1V7H7v2z"/></svg><svg viewBox="0 0 63 51" id="awward" xmlns="http://www.w3.org/2000/svg"><path d="M38.5 32.182c9.113 0 16.5-6.98 16.5-15.591C55 7.98 47.613 1 38.5 1S22 7.98 22 16.59c0 8.611 7.387 15.592 16.5 15.592z"/><path d="M29.566 29.71L26.714 50 38.5 43.318 50.285 50l-2.852-20.313"/></svg><svg viewBox="0 0 63 50" id="bag" xmlns="http://www.w3.org/2000/svg"><path d="M23.965 0c-2.07 0-3.776 1.694-3.776 3.75V7.5H3.83C1.761 7.5.055 9.194.055 11.25v10.86a1.273 1.273 0 000 .742V46.25C.055 48.306 1.761 50 3.83 50H59.2c2.069 0 3.774-1.694 3.774-3.75V22.734a1.262 1.262 0 000-.507V11.25c0-2.056-1.705-3.75-3.775-3.75H42.84V3.75c0-2.056-1.706-3.75-3.775-3.75h-15.1zm0 2.5h15.1c.708 0 1.258.547 1.258 1.25V7.5H22.706V3.75c0-.703.55-1.25 1.259-1.25zM3.83 10H59.2c.707 0 1.257.547 1.257 1.25v10H51.65c0-1.367-1.14-2.5-2.517-2.5H42.84c-1.376 0-2.517 1.133-2.517 2.5H22.706c0-1.367-1.14-2.5-2.517-2.5h-6.291c-1.377 0-2.517 1.133-2.517 2.5H2.572v-10c0-.703.55-1.25 1.258-1.25zm10.068 11.25h6.291v.86a1.273 1.273 0 000 .742v.898h-6.291v-1.016a1.262 1.262 0 000-.507v-.977zm28.942 0h6.292v.86a1.273 1.273 0 000 .742v.898H42.84v-1.016a1.259 1.259 0 000-.507v-.977zm-40.268 2.5h8.809c0 1.367 1.14 2.5 2.517 2.5h6.291c1.377 0 2.517-1.133 2.517-2.5h17.617c0 1.367 1.14 2.5 2.517 2.5h6.292c1.376 0 2.517-1.133 2.517-2.5h8.808v22.5c0 .703-.55 1.25-1.258 1.25H3.83a1.238 1.238 0 01-1.258-1.25v-22.5z"/></svg><svg fill="none" viewBox="0 0 22 12" id="big-arrow" xmlns="http://www.w3.org/2000/svg"><path d="M1 11L11 1l10 10" stroke="#0E151B"/></svg><svg viewBox="0 0 63 51" id="box" xmlns="http://www.w3.org/2000/svg"><path d="M50.692 19.055L28.23 6.389M61.922 35.162V15.638c0-.856-.231-1.697-.67-2.438a4.937 4.937 0 00-1.825-1.784l-17.47-9.762A5.078 5.078 0 0039.46 1c-.876 0-1.737.226-2.495.654l-17.47 9.762A4.938 4.938 0 0017.67 13.2a4.799 4.799 0 00-.67 2.438v19.524c0 .856.232 1.697.67 2.438a4.937 4.937 0 001.826 1.784l17.47 9.762a5.078 5.078 0 004.991 0l17.47-9.762a4.936 4.936 0 001.825-1.785c.438-.74.67-1.581.67-2.437z"/><path d="M17.674 13.1L39.46 25.424 61.25 13.1M39.462 50V25.4"/></svg><svg viewBox="0 0 63 50" id="boxing" xmlns="http://www.w3.org/2000/svg"><path d="M10 0v13.333h2.208V50h48.584V13.333H63V0H10zm2.208 2.222h48.584v8.89H12.208v-8.89zm2.209 11.111h44.166v34.445H14.417V13.333zm13.802 4.445c-2.122 0-3.865 1.753-3.865 3.889 0 2.135 1.743 3.889 3.865 3.889H44.78c2.122 0 3.865-1.754 3.865-3.89 0-2.135-1.743-3.888-3.865-3.888H28.22zm0 2.222H44.78c.928 0 1.657.733 1.657 1.667 0 .933-.73 1.666-1.657 1.666H28.22a1.646 1.646 0 01-1.657-1.666c0-.934.73-1.667 1.657-1.667z"/></svg><svg viewBox="0 0 17 16" id="burger" xmlns="http://www.w3.org/2000/svg"><path fill-rule="evenodd" d="M0 0h17v2H0V0zM0 7h17v2H0V7zM0 14h17v2H0v-2z"/></svg><svg viewBox="0 0 24 23" id="cart" xmlns="http://www.w3.org/2000/svg"><path fill-rule="evenodd" clip-rule="evenodd" d="M7 21a2 2 0 114 0 2 2 0 01-4 0zM18 21a2 2 0 114 0 2 2 0 01-4 0zM0 1a1 1 0 011-1h4a1 1 0 01.98.804L6.82 5H23a1 1 0 01.982 1.187l-1.601 8.398A3 3 0 0119.39 17H9.69a3 3 0 01-2.99-2.414L5.03 6.239a.994.994 0 01-.017-.084L4.18 2H1a1 1 0 01-1-1zm7.22 6l1.44 7.195a1 1 0 001 .805h9.76a1 1 0 00.998-.802L21.792 7H7.221z"/></svg><svg fill="none" viewBox="0 0 50 50" id="chat-bot" xmlns="http://www.w3.org/2000/svg"><path d="M34 28a2 2 0 01-2 2H20l-4 4V18a2 2 0 012-2h14a2 2 0 012 2v10z" stroke="#EAECEA" stroke-width="2" stroke-linecap="round" stroke-linejoin="round"/><circle cx="25" cy="25" r="24.5" stroke="#EAECEA"/></svg><svg fill="none" viewBox="0 0 15 15" id="close-icon" xmlns="http://www.w3.org/2000/svg"><path fill-rule="evenodd" clip-rule="evenodd" d="M14.78.22a.75.75 0 010 1.06l-13.5 13.5a.75.75 0 01-1.06-1.06L13.72.22a.75.75 0 011.06 0z" fill="#0E151B"/><path fill-rule="evenodd" clip-rule="evenodd" d="M.22.22a.75.75 0 011.06 0l13.5 13.5a.75.75 0 11-1.06 1.06L.22 1.28a.75.75 0 010-1.06z" fill="#0E151B"/></svg><svg viewBox="0 0 10 1" id="counter-minus" xmlns="http://www.w3.org/2000/svg"><path d="M0 0h10v1H0z"/></svg><svg viewBox="0 0 10 10" id="counter-plus" xmlns="http://www.w3.org/2000/svg"><path d="M0 4.445h10v1H0z"/><path d="M4.445 10V0h1v10z"/></svg><svg fill="none" viewBox="0 0 16 17" id="delete-icon" xmlns="http://www.w3.org/2000/svg"><path fill-rule="evenodd" clip-rule="evenodd" d="M0 3.864c0-.427.358-.773.8-.773h14.4c.442 0 .8.346.8.773a.787.787 0 01-.8.772H.8a.787.787 0 01-.8-.772z" fill="#EF4444"/><path fill-rule="evenodd" clip-rule="evenodd" d="M6.4 1.545a.815.815 0 00-.566.227.76.76 0 00-.234.546v.773h4.8v-.773a.76.76 0 00-.235-.546.815.815 0 00-.565-.227H6.4zM12 3.091v-.773c0-.615-.253-1.204-.703-1.639A2.444 2.444 0 009.6 0H6.4c-.637 0-1.247.244-1.697.679A2.279 2.279 0 004 2.319v.772H2.4c-.442 0-.8.346-.8.773v10.818c0 .615.252 1.204.703 1.639.45.435 1.06.679 1.697.679h8c.636 0 1.247-.244 1.697-.679.45-.435.703-1.024.703-1.64V3.865a.787.787 0 00-.8-.773H12zM3.2 4.636v10.046a.76.76 0 00.234.546c.15.145.353.226.566.226h8a.815.815 0 00.565-.226.76.76 0 00.235-.546V4.636H3.2z" fill="#EF4444"/><path fill-rule="evenodd" clip-rule="evenodd" d="M6.4 6.954c.441 0 .8.346.8.773v4.637a.787.787 0 01-.8.772.787.787 0 01-.8-.772V7.727c0-.427.358-.773.8-.773zM9.6 6.954c.442 0 .8.346.8.773v4.637a.787.787 0 01-.8.772.787.787 0 01-.8-.772V7.727c0-.427.358-.773.8-.773z" fill="#EF4444"/></svg><svg viewBox="0 0 21 14" id="download" xmlns="http://www.w3.org/2000/svg"><path d="M8.4 0c-2.714 0-4.886 2.168-5 4.879A4.625 4.625 0 000 9.333C0 11.9 2.08 14 4.62 14h12.6c2.077 0 3.78-1.72 3.78-3.818 0-1.654-1.091-3.058-2.56-3.553-.088-2.488-2.098-4.508-4.58-4.508-.436 0-.843.11-1.247.226C11.711.96 10.172 0 8.4 0zm0 .848c1.565 0 2.937.889 3.662 2.161l.184.305.328-.119a3.62 3.62 0 011.286-.225c2.08 0 3.78 1.717 3.78 3.818v.464l.328.08c1.232.293 2.192 1.48 2.192 2.85 0 1.636-1.32 2.97-2.94 2.97H4.62c-2.08 0-3.78-1.717-3.78-3.819 0-1.836 1.285-3.395 3.019-3.738l.341-.067v-.437C4.2 2.729 6.062.848 8.4.848zm1.68 4.243v4.905L8.282 8.18l-.604.61 2.52 2.545.302.292.302-.292 2.52-2.545-.604-.61-1.798 1.816V5.091h-.84z"/></svg><svg fill="none" viewBox="0 0 44 44" id="free-mark" xmlns="http://www.w3.org/2000/svg"><path d="M26.74 6.978l2.202-1.101a1.075 1.075 0 011.544.803l.362 2.435c.082.556.58.955 1.14.915l2.455-.176a1.075 1.075 0 011.12 1.334l-.598 2.387c-.136.546.17 1.104.703 1.282l2.336.777c.694.231.96 1.073.524 1.66l-1.466 1.978a1.075 1.075 0 00.16 1.453l1.86 1.612c.552.479.476 1.358-.152 1.735l-2.11 1.265c-.483.29-.66.9-.41 1.404l1.102 2.2a1.075 1.075 0 01-.803 1.545l-2.435.362c-.556.082-.955.58-.915 1.14l.176 2.455a1.075 1.075 0 01-1.334 1.12l-2.387-.598a1.075 1.075 0 00-1.282.704l-.777 2.335a1.075 1.075 0 01-1.66.524l-1.978-1.466a1.075 1.075 0 00-1.453.16l-1.612 1.86a1.075 1.075 0 01-1.735-.152l-1.265-2.11c-.29-.483-.9-.66-1.404-.41l-2.2 1.102a1.075 1.075 0 01-1.546-.803l-.361-2.435a1.075 1.075 0 00-1.14-.915l-2.455.176a1.075 1.075 0 01-1.12-1.334l.598-2.387a1.075 1.075 0 00-.704-1.282l-2.335-.777a1.075 1.075 0 01-.524-1.66l1.466-1.978a1.075 1.075 0 00-.16-1.453l-1.86-1.612a1.075 1.075 0 01.152-1.734l2.11-1.266c.483-.29.66-.9.41-1.404l-1.102-2.2a1.075 1.075 0 01.803-1.545l2.435-.362c.556-.082.954-.58.914-1.14l-.175-2.455a1.075 1.075 0 011.334-1.12l2.387.598a1.075 1.075 0 001.282-.704l.777-2.335a1.075 1.075 0 011.66-.524l1.978 1.466a1.075 1.075 0 001.453-.16l1.612-1.86a1.075 1.075 0 011.734.152l1.266 2.11c.29.483.9.66 1.404.41z" fill="#F05B2A"/><path d="M14.354 21.823l-2.902-.845-.93 3.192-1.407-.41 2.237-7.68 4.8 1.397-.345 1.187-3.393-.988-.616 2.115 2.901.845-.345 1.187zM17.248 22.798l-.894 3.07-1.478-.43 2.237-7.681 2.895.843c.85.247 1.436.624 1.755 1.129.32.505.373 1.125.159 1.86-.125.43-.335.75-.629.962-.294.211-.673.341-1.137.39l-.005.015c.394.268.638.58.73.936.091.357.068.773-.07 1.248l-.164.564c-.063.215-.1.44-.11.678-.01.237.037.432.143.585l-.043.148-1.514-.44c-.104-.157-.139-.372-.103-.646.036-.274.088-.529.157-.764l.158-.544c.115-.393.11-.72-.013-.982-.124-.261-.371-.445-.742-.554l-1.332-.387zm.346-1.187l1.275.371c.422.123.76.124 1.013.003.253-.12.433-.364.54-.73.104-.362.092-.672-.038-.93-.13-.256-.396-.444-.797-.56l-1.342-.391-.651 2.237z" fill="#FCFCFC"/><path d="M25.93 24.994l-2.904-.846-.64 2.195 3.396.988-.345 1.182-4.8-1.398 2.236-7.681 4.791 1.395-.345 1.187-3.385-.986-.563 1.931 2.904.846-.346 1.187zM31.69 26.67l-2.903-.845-.64 2.195 3.395.988-.344 1.182-4.8-1.398 2.236-7.68 4.791 1.394-.346 1.187-3.385-.985-.562 1.93 2.904.846-.346 1.187z" fill="#FCFCFC"/></svg><svg fill="none" viewBox="0 0 50 50" id="logo" xmlns="http://www.w3.org/2000/svg"><rect width="50" height="50" rx="25" fill="#F3F3F3"/></svg><svg viewBox="0 0 64 50" id="privacy" xmlns="http://www.w3.org/2000/svg"><path d="M57.298 22.6H22.912C20.2 22.6 18 24.749 18 27.4v16.8c0 2.65 2.2 4.8 4.912 4.8h34.386c2.713 0 4.913-2.15 4.913-4.8V27.4c0-2.651-2.2-4.8-4.913-4.8z"/><path d="M27.824 22.6V13c0-3.183 1.294-6.235 3.597-8.485A12.428 12.428 0 0140.105 1c3.257 0 6.38 1.264 8.684 3.515A11.862 11.862 0 0152.386 13v9.6"/></svg><svg viewBox="0 0 63 50" id="recycle" xmlns="http://www.w3.org/2000/svg"><path d="M38 0C24.206 0 13 11.206 13 25c-.005.45.23.87.62 1.099.39.224.87.224 1.26 0 .39-.23.625-.65.62-1.099C15.5 12.559 25.56 2.5 38 2.5c7.808 0 14.658 3.975 18.696 10H48c-.45-.005-.87.23-1.099.62-.224.39-.224.87 0 1.26.23.39.65.625 1.099.62h12.5V2.5a1.254 1.254 0 00-1.27-1.27A1.256 1.256 0 0058 2.5v7.515C53.434 3.935 46.174 0 38 0zm23.73 23.73A1.256 1.256 0 0060.5 25c0 12.441-10.059 22.5-22.5 22.5-7.808 0-14.663-3.975-18.696-10H28c.45.01.87-.23 1.099-.615a1.27 1.27 0 000-1.265A1.268 1.268 0 0028 35H17.307a1.34 1.34 0 00-.484 0H15.5v12.5c-.005.45.23.87.62 1.099.39.224.87.224 1.26 0 .39-.23.625-.65.62-1.099v-7.52C22.56 46.06 29.826 50 38 50c13.794 0 25-11.206 25-25a1.254 1.254 0 00-1.27-1.27z"/></svg><svg viewBox="0 0 23 23" id="search" xmlns="http://www.w3.org/2000/svg"><path fill-rule="evenodd" clip-rule="evenodd" d="M10.35 2.3a8.05 8.05 0 100 16.1 8.05 8.05 0 000-16.1zM0 10.35C0 4.634 4.634 0 10.35 0 16.066 0 20.7 4.634 20.7 10.35c0 5.716-4.634 10.35-10.35 10.35C4.634 20.7 0 16.066 0 10.35z"/><path fill-rule="evenodd" clip-rule="evenodd" d="M16.035 16.034a1.15 1.15 0 011.626 0l5.003 5.003a1.15 1.15 0 11-1.627 1.626l-5.002-5.002a1.15 1.15 0 010-1.627z"/></svg><svg fill="none" viewBox="0 0 40 40" id="slider-arrow" xmlns="http://www.w3.org/2000/svg"><circle cx="20" cy="20" r="19.5" stroke="#0E151B"/><path d="M7.47 19.47a.75.75 0 000 1.06l4.773 4.773a.75.75 0 001.06-1.06L9.061 20l4.242-4.243a.75.75 0 00-1.06-1.06L7.47 19.47zM33 19.25H8v1.5h25v-1.5z" fill="#0E151B"/></svg><svg fill="none" viewBox="0 0 12 8" id="small-arrow" xmlns="http://www.w3.org/2000/svg"><path d="M11 1L6 6 1 1" stroke="#0E151B" stroke-width="1.5"/></svg><svg fill="none" viewBox="0 0 24 24" id="sorting" xmlns="http://www.w3.org/2000/svg"><path d="M9 13l-.354-.354.354-.353.354.353L9 13zm.5 9a.5.5 0 01-1 0h1zm-5.854-4.354l5-5 .708.708-5 5-.708-.708zm5.708-5l5 5-.708.708-5-5 .708-.708zM9.5 13v9h-1v-9h1zM15 11l-.354.354.354.353.354-.353L15 11zm.5-9a.5.5 0 00-1 0h1zM9.646 6.354l5 5 .708-.708-5-5-.708.708zm5.708 5l5-5-.708-.708-5 5 .708.708zM15.5 11V2h-1v9h1z" fill="#0E151B"/></svg><svg fill="none" viewBox="0 0 66 66" id="success" xmlns="http://www.w3.org/2000/svg"><path d="M63 42V24C63 9 57 3 42 3H24C9 3 3 9 3 24v18c0 15 6 21 21 21h18c15 0 21-6 21-21z" stroke="#F05B2A" stroke-width="5" stroke-linecap="round" stroke-linejoin="round"/><path d="M20.486 33.003l8.357 8.358 16.672-16.715" stroke="#F05B2A" stroke-width="5" stroke-linecap="round" stroke-linejoin="round"/></svg><svg fill="none" viewBox="0 0 61 69" id="tracking" xmlns="http://www.w3.org/2000/svg"><path d="M36.232 64.727l6.413-2.057v-1.638l-6.413 2.057v1.638zM36.232 61.728l6.413-2.057v-1.638l-6.413 2.057v1.638z" fill="#0E151B"/><path d="M57.305 41.478a3.075 3.075 0 00-1.398-.889l-20.353-6.13c-.986-.3-2.04-.3-3.026 0l-20.354 6.13a3.075 3.075 0 00-1.396.888l-.001.001-.001.001c-.5.559-.776 1.28-.776 2.029v16.127a3.024 3.024 0 00.599 1.818c.391.526.943.911 1.572 1.099L32.52 68.71a5.21 5.21 0 001.52.227c.07 0 .14-.01.209-.029l-.004.021c.445-.016.887-.09 1.314-.218l20.367-6.164a3.042 3.042 0 001.56-1.1c.389-.525.597-1.16.594-1.812V43.508c0-.748-.275-1.47-.774-2.029zM33.232 67.233a3.47 3.47 0 01-.24-.064L12.64 61.01a1.434 1.434 0 01-1.024-1.374V43.507c0-.187.037-.372.109-.546l21.066 6.377.076.023.364.11v17.762zm.808-19.201l-20.442-6.188 19.4-5.843a3.595 3.595 0 012.088 0l19.398 5.843-6.369 1.928-9.521-2.86a.557.557 0 00-.32-.003l-4.8 1.358a.296.296 0 00-.157.458.296.296 0 00.152.108l8.92 2.672-8.349 2.527zm22.423 11.604a1.423 1.423 0 01-1.01 1.37L35.085 67.17a3.486 3.486 0 01-.237.064V49.47l8.906-2.696v6.596a.569.569 0 00.723.55l4.612-1.267a.571.571 0 00.42-.55v-6.891c0-.059-.004-.118-.011-.176l6.964-2.108v16.706zM31.34 15.988h-5.812v5.791h5.812v-5.79zm-1.588 4.21h-2.636V17.57h2.636v2.628zM42.54 4.524h-5.81v5.792h5.81V4.524zm-1.587 4.21h-2.636V6.106h2.636v2.628zM25.528 10.316h5.812V4.524h-5.812v5.792zm1.588-4.21h2.636v2.628h-2.636V6.106zM33.802 4.524H32.39v1.408h1.412V4.524zM26.936 11.223h-1.413v1.407h1.413v-1.407zM33.52 14.581h-1.412v1.408h1.413V14.58z" fill="#0E151B"/><path d="M30.034 12.63h3.062a.708.708 0 00.706-.703V8.642h1.3a.709.709 0 00.707-.704V5.933h-1.412v1.301h-1.301a.708.708 0 00-.706.704v3.285h-2.356v1.408zM39.635 15h2.906v-1.408h-2.2v-1.665a.702.702 0 00-.706-.704H36.73v1.407h2.199v1.666a.701.701 0 00.706.704zM35.887 18.884v-2.896h-1.412v2.192h-1.662v1.408h2.368a.707.707 0 00.706-.704zM29.752 13.592h-2.637v1.407h2.637v-1.407zM45.345 2.007v2.509h1.597V2.007c0-.532-.213-1.042-.59-1.418A2.02 2.02 0 0044.927 0H42.4v1.591h2.527a.419.419 0 01.417.416zM22.855 2.007a.415.415 0 01.417-.416h2.526V0h-2.526a2.02 2.02 0 00-1.424.589c-.377.376-.59.886-.59 1.418v2.509h1.597V2.007zM23.272 25.9h2.526v-1.59h-2.526a.419.419 0 01-.417-.417v-2.508h-1.597v2.508c0 .532.213 1.042.59 1.419.378.376.89.588 1.424.588zM49.609 16.58a4.464 4.464 0 00-3.147 1.3 4.434 4.434 0 00-1.304 3.135c0 1.926 2.75 5.203 3.927 6.516a.702.702 0 001.048 0c1.177-1.313 3.927-4.59 3.927-6.516a4.427 4.427 0 00-1.304-3.136 4.458 4.458 0 00-3.147-1.299zm0 6.532a2.207 2.207 0 01-2.034-1.355 2.189 2.189 0 01.477-2.391 2.204 2.204 0 013.759 1.551 2.19 2.19 0 01-.645 1.552 2.206 2.206 0 01-1.557.643z" fill="#0E151B"/><path d="M55.61 29.687a9.569 9.569 0 00.816-14.306 9.654 9.654 0 00-8.863-2.592 16.08 16.08 0 00-1.78.57 9.606 9.606 0 00-3.544 2.63h-4.086V14.58h-1.412l-.011 7.198h3.255a9.62 9.62 0 00.297 2.798s.313 1.128.64 1.75a9.61 9.61 0 002.33 3.06 9.65 9.65 0 007.175 2.354 9.667 9.667 0 003.699-1.082l4.715 5.643 1.355-1.125-4.587-5.49zm-15.428-9.49h-1.865V17.57h2.636v.38a9.538 9.538 0 00-.771 2.248zm9.43 9.82a7.89 7.89 0 01-4.995-1.78 7.841 7.841 0 01-2.727-4.534 7.822 7.822 0 01.778-5.23 7.863 7.863 0 013.93-3.55 7.898 7.898 0 015.299-.259 7.87 7.87 0 014.26 3.149 7.824 7.824 0 01-.979 9.907 7.823 7.823 0 01-5.567 2.297z" fill="#0E151B"/></svg></svg>